<?xml version="1.0" encoding="utf-8"?>
<!-- Generator: Adobe Illustrator 23.0.6, SVG Export Plug-In . SVG Version: 6.00 Build 0)  -->
<svg version="1.1" id="Layer_1" xmlns="http://www.w3.org/2000/svg" xmlns:xlink="http://www.w3.org/1999/xlink" x="0px" y="0px"
	 viewBox="0 0 214.08 240.53" style="enable-background:new 0 0 214.08 240.53;" xml:space="preserve">
<style type="text/css">
	.st0{fill:none;stroke:#FFFFFF;stroke-width:2;stroke-miterlimit:10;}
</style>
<g>
	<polyline class="st0" points="164.18,92.34 197.6,57.61 119.73,38.11 110.61,41.14 103.95,37.87 102.1,34.15 81.04,25.76 
		93.25,72.51 	"/>
	<path class="st0" d="M80.71,25.27c1.97-6.24,30.76-5.81,63.05,4.37s56.29,21.36,54.32,27.6"/>
	<path class="st0" d="M164.18,92.34c-14.45,8.74-66.27-7.55-71.35-21.45"/>
	<path class="st0" d="M130.45,74.27"/>
	<polyline class="st0" points="92.75,70.6 93.71,92.46 61.41,120.6 	"/>
	<polyline class="st0" points="164.18,92.34 149.73,108.88 153.01,147.72 	"/>
	<path class="st0" d="M62.85,110.04"/>
	<path class="st0" d="M61.41,120.6"/>
	<path class="st0" d="M152.74,148.43"/>
	<line class="st0" x1="62.85" y1="119.35" x2="27.27" y2="148.46"/>
	<line class="st0" x1="152.74" y1="144.4" x2="156.67" y2="200.42"/>
	<path class="st0" d="M151.51,130.58c-15.04,8.55-69.7-8.63-75.26-22.68"/>
	<path class="st0" d="M156.88,199.89c-42.99,33.58-129.61-2.78-128.82-52.07"/>
	<path class="st0" d="M198.2,92.84"/>
	<path class="st0" d="M181.66,74.18c14.43,43.69-0.25,73.95-28,78.69"/>
	<path class="st0" d="M177,79.02c11.1,35.43,2.13,61.5-24.26,69.41"/>
</g>
</svg>
