<?xml version="1.0" encoding="utf-8"?>
<!-- Generator: Adobe Illustrator 23.0.6, SVG Export Plug-In . SVG Version: 6.00 Build 0)  -->
<svg version="1.1" id="Layer_1" xmlns="http://www.w3.org/2000/svg" xmlns:xlink="http://www.w3.org/1999/xlink" x="0px" y="0px"
	 viewBox="0 0 251.91 300.14" style="enable-background:new 0 0 251.91 300.14;" xml:space="preserve">
<style type="text/css">
	.st0{fill:none;}
	.st1{fill:none;stroke:#FFFFFF;stroke-width:3;stroke-miterlimit:10;}
	.st2{fill:none;stroke:#FFFDFE;stroke-width:3;stroke-miterlimit:10;}
</style>
<polyline class="st0" points="195.11,23.71 193.82,15.71 212.72,15.71 212.72,23.48 "/>
<path class="st1" d="M298.08,68.69"/>
<g>
	<polygon class="st1" points="25.59,34.41 25.59,114.51 40.65,119.63 54.75,119.63 57.63,124.76 57.63,220.24 22.39,239.46 
		22.39,272.14 35.84,280.48 188.99,283.36 219.76,251.76 222,26.85 216.23,22.55 211.42,16.79 151.19,16.79 147.02,22.46 
		147.02,31.2 142.86,31.2 145.4,24.15 83.26,25.44 81.34,28.32 31.36,28.96 	"/>
	<polygon class="st2" points="25.59,34.41 86.83,34.41 81.34,28.32 31.36,28.96 	"/>
	<line class="st1" x1="86.83" y1="34.41" x2="222" y2="35.52"/>
	<polyline class="st1" points="207.82,29.91 207.82,22.53 211.39,18.08 211.54,29.91 189.41,29.91 189.41,34.61 189.41,117.1 	"/>
	<line class="st1" x1="147.31" y1="22.46" x2="207.82" y2="22.53"/>
	<line class="st1" x1="160.62" y1="35.52" x2="160.62" y2="120.59"/>
	<line class="st1" x1="172.04" y1="35.52" x2="172.04" y2="120.84"/>
	<polyline class="st1" points="54.75,119.17 181.5,120.84 181.5,36.72 	"/>
	<path class="st1" d="M181.5,267.65"/>
	<rect x="41.34" y="78.05" class="st1" width="13.4" height="8.04"/>
	<rect x="54.75" y="50.91" class="st1" width="5.27" height="9.56"/>
	<polygon class="st1" points="98.53,65.47 98.21,93.18 106.53,90.07 106.53,62.92 	"/>
	<polygon class="st1" points="108.64,106.4 108.1,109.62 115.72,109.62 115.85,105.21 	"/>
	<polyline class="st1" points="89.12,120.84 89.12,129.09 102.37,129.09 102.37,137.35 115.85,137.35 154.41,137.35 154.41,124.32 
		160.62,124.32 160.62,120.59 	"/>
	<polyline class="st1" points="141.24,137.35 141.24,150.07 134.08,150.07 	"/>
	<polyline class="st1" points="172.04,120.84 172.04,139.52 160.62,143.71 160.62,148.21 141.24,137.35 	"/>
	<line class="st1" x1="177.08" y1="241.12" x2="177.08" y2="275.89"/>
	<polyline class="st1" points="22.03,239.49 175.64,242.37 206.65,219.78 57.63,220.24 24.88,239.01 24.88,267.09 36.45,273.73 
		181.5,275.89 207.82,250.25 207.82,111.29 181.5,120.84 181.5,139.95 174.69,143.71 174.86,212.55 160.62,212.55 160.62,143.71 
		174.69,143.71 	"/>
	<line class="st1" x1="160.62" y1="164.24" x2="174.74" y2="164.24"/>
	<path class="st1" d="M197.62,164.7"/>
	<path class="st1" d="M114.11,164.89c0,5.39-3.38,9.03-3.78,9.43c-0.52,0.53-3.6,3.54-7.97,3.41c-5.45-0.16-11.74-5.16-11.74-12.84
		c0-7.09,5.26-12.84,11.74-12.84C108.86,152.05,114.11,157.8,114.11,164.89z"/>
	<polyline class="st1" points="102.09,152.02 120.97,144.49 131.11,159 109.66,175.14 	"/>
	<polyline class="st1" points="43.33,28.32 43.33,22.46 60.02,22.53 60.02,28.59 	"/>
	<circle class="st1" cx="107.68" cy="82.07" r="23.89"/>
	<polyline class="st1" points="120.58,61.7 126.5,54.56 139.55,85.49 131.34,85.49 	"/>
	<polyline class="st1" points="83.79,78.78 81.22,78.78 81.22,83.32 83.79,83.32 	"/>
	<polyline class="st1" points="121.48,166.24 134.08,166.24 134.08,156.02 134.08,150.07 124.87,150.07 	"/>
	<line class="st1" x1="111.98" y1="137.35" x2="111.98" y2="148.21"/>
	<ellipse class="st1" cx="96.36" cy="230.88" rx="5.73" ry="2.03"/>
	<path class="st1" d="M127.78,230.88c0,1.79-3.54,3.24-7.9,3.24s-7.9-1.45-7.9-3.24c0-1.79,3.54-2.03,7.9-2.03
		S127.78,229.09,127.78,230.88z"/>
</g>
</svg>
