<?xml version="1.0" encoding="utf-8"?>
<!-- Generator: Adobe Illustrator 23.0.6, SVG Export Plug-In . SVG Version: 6.00 Build 0)  -->
<svg version="1.1" id="Layer_1" xmlns="http://www.w3.org/2000/svg" xmlns:xlink="http://www.w3.org/1999/xlink" x="0px" y="0px"
	 viewBox="0 0 208.55 269.89" style="enable-background:new 0 0 208.55 269.89;" xml:space="preserve">
<style type="text/css">
	.st0{fill:none;stroke:#FFFFFF;stroke-width:3;stroke-miterlimit:10;}
</style>
<g>
	<polyline class="st0" points="21.95,65.74 27.15,68.03 36.31,68.03 46.34,66.6 70.6,148.1 84.51,151.98 96.47,150.36 
		109.73,147.78 120.41,144.54 131.08,141.31 143.05,136.46 155.66,129.02 141.75,33.93 137.55,29.4 92.59,29.4 77.39,33.61 
		20.47,66.6 13.35,75.65 20.47,74.03 62.86,122.11 	"/>
	<polyline class="st0" points="46.34,66.6 65.98,62.09 96.47,150.36 102.27,164.67 	"/>
	<polyline class="st0" points="65.98,62.09 109.84,48.81 134.32,140 	"/>
	<line class="st0" x1="141.75" y1="33.93" x2="109.84" y2="48.81"/>
	<polyline class="st0" points="74.05,149.06 77.83,161.5 87.79,164.67 102.27,164.67 115.61,162.4 125.8,159.24 136.42,155.16 
		147.74,149.06 158.82,140.91 155.66,129.02 	"/>
	<line class="st0" x1="143.05" y1="136.46" x2="147.74" y2="149.06"/>
	<line class="st0" x1="131.08" y1="141.31" x2="136.42" y2="155.16"/>
	<line class="st0" x1="120.41" y1="144.54" x2="125.8" y2="159.24"/>
	<line class="st0" x1="109.73" y1="147.78" x2="115.61" y2="162.4"/>
	<polyline class="st0" points="84.51,151.98 87.79,164.67 90.56,171.34 79.14,168.5 	"/>
	<polyline class="st0" points="84.16,163.51 79.14,168.5 80.31,176.02 93.34,260.01 125.8,264.48 104.5,176.02 	"/>
	<polyline class="st0" points="159.69,145.98 195.2,232.82 189.72,237.08 	"/>
	<polyline class="st0" points="138.79,167.08 169.03,251.29 125.8,264.48 	"/>
	<polyline class="st0" points="155.66,155.16 189.72,237.08 169.03,251.29 	"/>
	<polyline class="st0" points="127.54,29.4 151.83,19.78 154.87,18.58 158.63,17.09 165.67,14.31 185.72,25.48 189.72,33.93 
		189.72,43.23 189.72,55.39 187.04,72.82 177.45,107.33 169.03,101.74 172.69,89.58 175.2,78.73 172.69,70.51 177.45,33.93 
		171.26,29.4 166.66,30.74 155.66,42.9 144.56,53.1 143.05,41.37 151.83,33.93 151.83,19.78 	"/>
	<path class="st0" d="M151.83,19.78"/>
	<polyline class="st0" points="77.39,33.61 65.98,14.31 93.96,6.32 92.59,29.4 	"/>
	<polyline class="st0" points="90.56,171.34 123.1,164.67 153,150.85 154.93,143.77 159.69,145.98 153,150.85 155.66,155.16 
		138.79,167.08 123.1,164.67 104.5,176.02 90.56,171.34 80.31,176.02 	"/>
</g>
</svg>
