<?xml version="1.0" encoding="utf-8"?>
<!-- Generator: Adobe Illustrator 23.0.6, SVG Export Plug-In . SVG Version: 6.00 Build 0)  -->
<svg version="1.1" id="Layer_1" xmlns="http://www.w3.org/2000/svg" xmlns:xlink="http://www.w3.org/1999/xlink" x="0px" y="0px"
	 viewBox="0 0 227.94 288.27" style="enable-background:new 0 0 227.94 288.27;" xml:space="preserve">
<style type="text/css">
	.st0{fill:none;stroke:#FFFFFF;stroke-width:3;stroke-miterlimit:10;}
	.st1{fill:#FFFFFF;stroke:#FFFFFF;stroke-width:3;stroke-miterlimit:10;}
	.st2{fill:#FFFFFF;stroke:#FFFFFF;stroke-miterlimit:10;}
</style>
<g>
	<path class="st0" d="M84.63,51c-24.7,7.29-43.13,15.77-42.08,19.57c1.13,4.07,24.25,1.22,51.63-6.38
		c27.38-7.6,48.67-17.06,47.54-21.13c-1.03-3.71-20.96-1.69-45.04,4.43"/>
	<path class="st0" d="M43.92,77.51c1.07,3.95,24.34,1.12,51.96-6.33s49.14-16.69,48.08-20.64"/>
	<polyline class="st1" points="141.72,43.06 151.24,74.95 196.11,234.1 	"/>
	<polyline class="st0" points="95.78,264.68 56.81,124.65 48.54,96.59 42.87,92.51 33.34,92.51 45.35,78.97 	"/>
	<line class="st0" x1="42.94" y1="71.08" x2="44.36" y2="80.28"/>
	<polyline class="st0" points="89.71,64.08 84.33,45.11 73.81,48.07 72.61,43.29 104.04,33.27 105.95,38.82 93.48,42.71 
		99.14,61.26 	"/>
	<polyline class="st0" points="55.22,80.56 62.41,105.18 101.82,95.88 137.01,216.14 141.24,214.77 105.63,94.72 143.36,82.04 
		135.92,57.13 	"/>
	<path class="st0" d="M153.94,79.29c48.21-8.87,63.45,32.76,51.9,60.39c-2.11,5.04-8.14,20.4-26.18,36.04"/>
	<path class="st0" d="M150.86,72.72c58.29-10.98,76.17,37.61,61.89,70.12c-2.6,5.93-10.08,24-32.04,42.55"/>
	<path class="st0" d="M133.4,203.79c-17.9,5.92-30.88,14.19-29.42,18.93c1.54,4.96,18.38,4.16,37.62-1.8
		c19.24-5.96,33.59-14.81,32.06-19.77c-1.49-4.83-17.48-4.2-36.07,1.33"/>
	<path class="st0" d="M176.52,211.45c1.63,5.26-12.52,14.31-31.59,20.22c-19.08,5.91-35.86,6.43-37.49,1.17"/>
	<line class="st1" x1="104.84" y1="224.25" x2="107.57" y2="233.2"/>
	<path class="st2" d="M173.05,201.03"/>
	<line class="st1" x1="173.71" y1="201.69" x2="176.65" y2="211.91"/>
	<path class="st0" d="M95.52,264.03c1.19,3.96,27.18,4.51,54.94-3.81c27.75-8.32,46.78-22.36,45.6-26.32"/>
</g>
</svg>
