<?xml version="1.0" encoding="utf-8"?>
<!-- Generator: Adobe Illustrator 23.0.6, SVG Export Plug-In . SVG Version: 6.00 Build 0)  -->
<svg version="1.1" id="Layer_1" xmlns="http://www.w3.org/2000/svg" xmlns:xlink="http://www.w3.org/1999/xlink" x="0px" y="0px"
	 viewBox="0 0 203.63 202.42" style="enable-background:new 0 0 203.63 202.42;" xml:space="preserve">
<style type="text/css">
	.st0{fill:none;stroke:#FFFFFF;stroke-width:3;stroke-miterlimit:10;}
</style>
<g>
	<line class="st0" x1="14.16" y1="55.66" x2="63.97" y2="148.09"/>
	<line class="st0" x1="160.31" y1="58.01" x2="115.31" y2="148.09"/>
	<path class="st0" d="M160.31,58.01c-0.2,6.33-33.44,10.4-74.23,9.1s-72.12-5.13-71.92-11.45s31.85-12.75,72.65-11.45
		C127.6,45.51,160.51,51.69,160.31,58.01z"/>
	<path class="st0" d="M115.31,148.09c-0.95,1.91-10.41,5.88-24.23,6.07c-13.92,0.19-27.14-5.06-27.28-6.41"/>
	<path class="st0" d="M89.07,135.51"/>
	<path class="st0" d="M120.72,137.25c25.57,2.97,43.3,9.43,43.3,16.92c0,10.3-33.56,18.66-74.95,18.66s-74.95-8.35-74.95-18.66
		c0-7.55,18.03-14.06,43.97-16.99"/>
	<path class="st0" d="M151.8,75.37c26.66,1.07,26.43,5.17,25.58,12.8c-0.93,8.34-10.9,24.71-45.39,26.51"/>
	<path class="st0" d="M148.82,81.02c20.86,0.27,23.31,2.41,22.51,7.72c-0.87,5.8-9.34,18.18-36.38,20.05"/>
</g>
</svg>
