40<?xml version="1.0" encoding="utf-8"?>
<!-- Generator: Adobe Illustrator 23.0.6, SVG Export Plug-In . SVG Version: 6.00 Build 0)  -->
<svg version="1.1" id="Layer_1" xmlns="http://www.w3.org/2000/svg" xmlns:xlink="http://www.w3.org/1999/xlink" x="0px" y="0px"
	 viewBox="0 0 284.2 418.8" style="enable-background:new 0 0 284.2 418.8;" xml:space="preserve">
<style type="text/css">
	.st0{fill:none;stroke:#FFFFFF;stroke-width:3;stroke-miterlimit:10;}
	.st1{fill:none;stroke:#FFFFFF;stroke-miterlimit:10;}
</style>
<g>
	<line class="st0" x1="109.5" y1="136.9" x2="135.2" y2="29.9"/>
	<line class="st0" x1="219.5" y1="54.4" x2="187.5" y2="158.9"/>
	<line class="st0" x1="157.9" y1="60.5" x2="149.5" y2="95.2"/>
	<line class="st0" x1="183.2" y1="67.6" x2="174.8" y2="102.3"/>
	<polyline class="st0" points="117.9,146.2 115.5,154.8 128.6,161.5 125.6,171.9 153.7,181.1 157.9,171.9 172.3,172.8 174.8,163.4 	
		"/>
	<line class="st0" x1="126.2" y1="200.1" x2="112.3" y2="263.4"/>
	<line class="st0" x1="140.2" y1="203.5" x2="123.6" y2="267.1"/>
	<line class="st0" x1="123.4" y1="272.4" x2="117.4" y2="269.4"/>
	<path class="st0" d="M149.6,180.4l-0.6,2.4l4.7,8.6l-4.1,13.1l3,8.4c3.2,2.2,12,8.7,16.1,20.9c5.8,17-2.1,31.5-3.6,34.1
		c-9.3,16.6-28.1,23-43,22.1c-22.2-1.4-46.5-19.7-46-45.4c0.4-20.7,16.7-39.5,39.5-43.6l6.9-4.2l1-12.6l8.3-5.4l1-3.7"/>
	<polyline class="st0" points="132.7,202.1 119.1,264.2 117.1,269.8 112,273.2 	"/>
	<path class="st0" d="M157.9,172.8"/>
	<path class="st0" d="M128.6,162.6"/>
	<polyline class="st0" points="176,256.5 150,343.1 142.8,348.7 	"/>
	<line class="st0" x1="190.3" y1="260.6" x2="168.3" y2="348.7"/>
	<polyline class="st0" points="181.9,239.1 190.3,206.7 171.4,201.6 	"/>
	<polyline class="st0" points="172.9,194.6 204.8,202.1 193.6,243.6 	"/>
	<path class="st1" d="M163.7,364.3"/>
	<polyline class="st0" points="63.5,348.7 68.9,324.9 76.3,323.2 79.2,292.2 	"/>
	<polyline class="st0" points="137.8,309.1 125.4,336.4 128.2,343.1 142.8,348.7 147.9,350.6 167.6,358.2 152.2,364.3 163.7,364.3 	
		"/>
	<line class="st0" x1="168.3" y1="348.7" x2="168.3" y2="358.2"/>
	<line class="st0" x1="157.9" y1="348" x2="157" y2="354.1"/>
	<line class="st0" x1="181.9" y1="239.4" x2="178.2" y2="251.3"/>
	<line class="st0" x1="193.8" y1="242.9" x2="191" y2="255.2"/>
	<line class="st0" x1="178.2" y1="251.3" x2="176" y2="256.5"/>
	<line class="st0" x1="191" y1="255" x2="190.3" y2="260.6"/>
	<line class="st0" x1="153.6" y1="191.4" x2="167.6" y2="194.1"/>
	<line class="st0" x1="151.2" y1="199.2" x2="165" y2="202.1"/>
	<ellipse transform="matrix(0.2814 -0.9596 0.9596 0.2814 86.0991 201.0444)" class="st0" cx="177.3" cy="43" rx="5.9" ry="44.1"/>
	<path class="st0" d="M214,70.9c-0.9,3-20.2,0-43.1-6.7S130.2,49.6,131,46.6"/>
	<path class="st0" d="M175.2,101.7c-0.9,3-7.3,3.8-14.4,1.7s-12.1-6.2-11.2-9.2"/>
	<path class="st0" d="M187.5,158.9c-1.7,5.8-20.5,5.4-42-0.9s-37.6-16.1-35.9-21.9"/>
	<path class="st0" d="M158,171.8c-0.3,1-7.1-0.4-15.2-3.1s-14.3-5.7-14-6.6"/>
	<path class="st0" d="M149,182.8c-0.3,1-4.3,0.7-9.1-0.6c-4.7-1.3-8.4-3.2-8.1-4.2"/>
	<path class="st0" d="M153.7,190.9c-0.4,1.6-7.4,1.3-15.6-0.8c-8.2-2-14.5-5-14.1-6.6"/>
	<path class="st0" d="M149.8,203.5c-0.4,1.6-6.9,1.4-14.4-0.5c-7.6-1.9-13.4-4.7-13-6.3"/>
	<path class="st0" d="M173.1,199.1"/>
	<path class="st0" d="M165.4,187.4"/>
	<path class="st0" d="M165.1,187.4"/>
	<path class="st0" d="M157.4,200.1"/>
	<path class="st0" d="M163.9,209.3"/>
	<path class="st0" d="M159,192.7"/>
	<path class="st0" d="M159.4,200.6c0.4,2.8,1.5,4.7,3,4.8c2.2,0.2,4.5-3.7,5.1-8.8c0.6-5.1-0.8-9.4-3-9.6c-1.7-0.2-3.5,2.1-4.4,5.5"
		/>
	<path class="st0" d="M157.3,200.1c0.6,4.7,3.1,8.2,6.5,8.6c4.3,0.5,8.4-4.5,9.1-11.1c0.7-6.6-2.2-12.3-6.5-12.8
		c-3.4-0.4-6.7,2.7-8.3,7.3"/>
	<path class="st0" d="M194,242.2c-0.4,1.4-3.4,1.8-6.8,0.9c-3.4-0.9-5.7-2.9-5.3-4.3"/>
	<path class="st0" d="M191.1,254.7c-0.4,1.4-3.6,1.8-7.2,0.8c-3.6-1-6.1-3-5.7-4.4"/>
	<path class="st0" d="M190.4,260.5c-0.4,1.4-3.9,1.7-7.9,0.6c-3.9-1.1-6.8-3.2-6.4-4.6"/>
	<path class="st0" d="M180.2,301.4c-0.4,1.4-4.4,1.6-8.9,0.3c-4.5-1.3-7.8-3.4-7.4-4.9"/>
	<path class="st0" d="M168.4,348.1c-0.4,1.4-4.9,1.4-10,0c-5.1-1.4-8.9-3.7-8.5-5.2"/>
	
		<ellipse transform="matrix(0.2814 -0.9596 0.9596 0.2814 -207.8356 319.6495)" class="st0" cx="109.5" cy="298.6" rx="5.9" ry="33.8"/>
	<path class="st0" d="M127.9,342.6c-1.2,4-15,3.1-31.4-1.7c-16.4-4.8-28.8-12-27.6-16"/>
	<path class="st0" d="M125.4,337.2c-1,3.3-12.3,2.5-26-1.5s-24-9.9-23.1-13.2"/>
	<path class="st0" d="M63.5,348.7c-1,3.3,14.2,12.8,28.5,15.4l12.2-3.1l19.2,1.1l3.4-13.4l25.4,15.6"/>
	<polyline class="st0" points="167.6,358.2 166.1,363.6 163.7,364.3 163.7,373 146.5,374.9 	"/>
	<polyline class="st0" points="91.9,364 100.9,369.4 146.5,374.9 146.5,363.9 	"/>
	<polyline class="st0" points="142.8,348.7 152.2,364.3 123.4,362.1 	"/>
	<path class="st0" d="M123.8,266.5c-0.4,1.5-3.3,2-6.5,1.1c-3.2-0.9-5.4-2.8-5-4.3"/>
	<rect x="79" y="309.6" transform="matrix(0.9596 0.2814 -0.2814 0.9596 92.2603 -9.8922)" class="st1" width="3.2" height="13.4"/>
	
		<rect x="84.5" y="314.2" transform="matrix(0.9596 0.2814 -0.2814 0.9596 93.7577 -11.2666)" class="st1" width="3.2" height="13.4"/>
	
		<rect x="90.3" y="317.3" transform="matrix(0.9596 0.2814 -0.2814 0.9596 94.8792 -12.7768)" class="st1" width="3.2" height="13.4"/>
	
		<rect x="96.7" y="319.2" transform="matrix(0.9596 0.2814 -0.2814 0.9596 95.6679 -14.5065)" class="st1" width="3.2" height="13.4"/>
	
		<rect x="102.7" y="321.4" transform="matrix(0.9596 0.2814 -0.2814 0.9596 96.5371 -16.0984)" class="st1" width="3.2" height="13.4"/>
	
		<rect x="109.2" y="323.3" transform="matrix(0.9596 0.2814 -0.2814 0.9596 97.3387 -17.8564)" class="st1" width="3.2" height="13.4"/>
	
		<rect x="115.8" y="323.3" transform="matrix(0.9596 0.2814 -0.2814 0.9596 97.6036 -19.7011)" class="st1" width="3.2" height="13.4"/>
	
		<rect x="122.7" y="322.5" transform="matrix(0.9596 0.2814 -0.2814 0.9596 97.6393 -21.6889)" class="st1" width="3.2" height="13.4"/>
</g>
</svg>
